<svg width="177" height="39" viewBox="0 0 177 39" fill="none" xmlns="http://www.w3.org/2000/svg">
<path d="M26.3878 19.5329C26.3878 23.3415 23.3065 26.429 19.5055 26.429C15.7045 26.429 12.6231 23.3415 12.6231 19.5329C12.6231 15.7243 15.7045 12.6368 19.5055 12.6368C23.3065 12.6368 26.3878 15.7243 26.3878 19.5329Z" fill="#131313"/>
<path d="M21.8555 32.8918C22.2072 34.8902 24.1338 36.26 26.0088 35.4929C28.6264 34.4219 30.9586 32.7132 32.781 30.4981C35.3868 27.3306 36.7792 23.3354 36.7077 19.2311C36.6363 15.1268 35.1055 11.1826 32.3909 8.10813C30.4925 5.95816 28.1022 4.33206 25.4489 3.35315C23.5483 2.65205 21.6706 4.08851 21.3888 6.09803C21.1069 8.10744 22.5667 9.91169 24.3332 10.9043C25.2906 11.4423 26.1593 12.1407 26.8981 12.9775C28.4557 14.7415 29.3339 17.0044 29.3749 19.3592C29.4159 21.7141 28.6171 24.0064 27.1219 25.8238C26.4127 26.6859 25.5689 27.4142 24.6307 27.9854C22.8999 29.0392 21.5038 30.8934 21.8555 32.8918Z" fill="#131313"/>
<path d="M21.6549 2.42592C20.9505 2.33788 20.2329 2.2926 19.5047 2.2926C10.0022 2.2926 2.29883 10.0113 2.29883 19.5329C2.29883 29.0544 10.0022 36.7731 19.5047 36.7731C20.4392 36.7731 21.3563 36.6985 22.2504 36.5548C21.1685 35.7629 20.3962 34.527 20.1613 33.192C19.9071 31.7476 20.2567 30.4349 20.9102 29.325C20.4511 29.3906 19.9819 29.4245 19.5047 29.4245C14.0526 29.4245 9.63278 24.9958 9.63278 19.5329C9.63278 14.0699 14.0526 9.6412 19.5047 9.6412C19.8642 9.6412 20.2192 9.66051 20.5687 9.69798C19.8767 8.6115 19.4813 7.31158 19.6851 5.85892C19.8734 4.51694 20.6018 3.25518 21.6549 2.42592Z" fill="#573FEF"/>
<path d="M54.08 27.7969C52.208 27.7969 50.6 27.4369 49.256 26.7169C47.912 25.9969 46.88 24.9809 46.16 23.6689C45.456 22.3569 45.104 20.8209 45.104 19.0609C45.104 17.3009 45.456 15.7729 46.16 14.4769C46.88 13.1649 47.912 12.1489 49.256 11.4289C50.6 10.7089 52.208 10.3489 54.08 10.3489C55.2 10.3489 56.28 10.5169 57.32 10.8529C58.36 11.1889 59.2 11.6449 59.84 12.2209L58.52 15.7009C57.816 15.1889 57.112 14.8129 56.408 14.5729C55.704 14.3169 54.984 14.1889 54.248 14.1889C52.76 14.1889 51.64 14.6129 50.888 15.4609C50.136 16.2929 49.76 17.4929 49.76 19.0609C49.76 20.6449 50.136 21.8609 50.888 22.7089C51.64 23.5409 52.76 23.9569 54.248 23.9569C54.984 23.9569 55.704 23.8369 56.408 23.5969C57.112 23.3409 57.816 22.9569 58.52 22.4449L59.84 25.9249C59.2 26.4849 58.36 26.9409 57.32 27.2929C56.28 27.6289 55.2 27.7969 54.08 27.7969ZM69.6101 27.7969C68.3301 27.7969 67.1621 27.5889 66.1061 27.1729C65.0501 26.7569 64.1381 26.1649 63.3701 25.3969C62.6181 24.6129 62.0341 23.6849 61.6181 22.6129C61.2181 21.5409 61.0181 20.3569 61.0181 19.0609C61.0181 17.7489 61.2181 16.5569 61.6181 15.4849C62.0341 14.4129 62.6181 13.4929 63.3701 12.7249C64.1381 11.9569 65.0501 11.3729 66.1061 10.9729C67.1621 10.5569 68.3301 10.3489 69.6101 10.3489C70.8901 10.3489 72.0581 10.5569 73.1141 10.9729C74.1701 11.3729 75.0741 11.9569 75.8261 12.7249C76.5941 13.4929 77.1781 14.4129 77.5781 15.4849C77.9941 16.5409 78.2021 17.7249 78.2021 19.0369C78.2021 20.3649 77.9941 21.5649 77.5781 22.6369C77.1781 23.7089 76.5941 24.6369 75.8261 25.4209C75.0741 26.1889 74.1701 26.7809 73.1141 27.1969C72.0581 27.5969 70.8901 27.7969 69.6101 27.7969ZM69.6101 24.1009C70.4581 24.1009 71.1781 23.9009 71.7701 23.5009C72.3621 23.1009 72.8181 22.5249 73.1381 21.7729C73.4581 21.0209 73.6181 20.1169 73.6181 19.0609C73.6181 18.0049 73.4581 17.1009 73.1381 16.3489C72.8341 15.5969 72.3781 15.0289 71.7701 14.6449C71.1781 14.2449 70.4581 14.0449 69.6101 14.0449C68.7781 14.0449 68.0581 14.2449 67.4501 14.6449C66.8581 15.0289 66.4021 15.5969 66.0821 16.3489C65.7621 17.1009 65.6021 18.0049 65.6021 19.0609C65.6021 20.1169 65.7541 21.0209 66.0581 21.7729C66.3781 22.5249 66.8421 23.1009 67.4501 23.5009C68.0581 23.9009 68.7781 24.1009 69.6101 24.1009ZM80.8094 27.5329V10.6129H87.8174C89.7694 10.6129 91.4334 10.9489 92.8094 11.6209C94.1854 12.2769 95.2334 13.2369 95.9534 14.5009C96.6894 15.7489 97.0574 17.2689 97.0574 19.0609C97.0574 20.8529 96.6894 22.3809 95.9534 23.6449C95.2334 24.9089 94.1854 25.8769 92.8094 26.5489C91.4334 27.2049 89.7694 27.5329 87.8174 27.5329H80.8094ZM85.2254 23.9569H87.5294C89.2094 23.9569 90.4494 23.5569 91.2494 22.7569C92.0654 21.9409 92.4734 20.7089 92.4734 19.0609C92.4734 17.3969 92.0654 16.1729 91.2494 15.3889C90.4334 14.5889 89.1934 14.1889 87.5294 14.1889H85.2254V23.9569ZM99.6766 27.5329V10.6129H111.629V14.0209H103.901V17.2369H111.077V20.6449H103.901V24.1249H111.629V27.5329H99.6766ZM120.472 27.7969C119.592 27.7969 118.728 27.7249 117.88 27.5809C117.032 27.4369 116.248 27.2289 115.528 26.9569C114.808 26.6849 114.184 26.3649 113.656 25.9969L114.88 22.5649C115.376 22.8849 115.928 23.1649 116.536 23.4049C117.144 23.6449 117.784 23.8369 118.456 23.9809C119.128 24.1089 119.8 24.1729 120.472 24.1729C121.528 24.1729 122.264 24.0369 122.68 23.7649C123.112 23.4769 123.328 23.1249 123.328 22.7089C123.328 22.4529 123.264 22.2369 123.136 22.0609C123.008 21.8849 122.792 21.7329 122.488 21.6049C122.2 21.4609 121.808 21.3409 121.312 21.2449L118.504 20.6449C116.968 20.3249 115.824 19.7649 115.072 18.9649C114.32 18.1649 113.944 17.1329 113.944 15.8689C113.944 14.7489 114.24 13.7809 114.832 12.9649C115.44 12.1329 116.28 11.4929 117.352 11.0449C118.44 10.5809 119.688 10.3489 121.096 10.3489C121.88 10.3489 122.632 10.4209 123.352 10.5649C124.088 10.7089 124.768 10.9249 125.392 11.2129C126.016 11.4849 126.544 11.8049 126.976 12.1729L125.752 15.3889C125.144 14.9409 124.432 14.5969 123.616 14.3569C122.816 14.1009 121.96 13.9729 121.048 13.9729C120.456 13.9729 119.952 14.0449 119.536 14.1889C119.12 14.3169 118.8 14.5089 118.576 14.7649C118.368 15.0209 118.264 15.3169 118.264 15.6529C118.264 15.9889 118.4 16.2769 118.672 16.5169C118.96 16.7409 119.48 16.9329 120.232 17.0929L123.016 17.6929C124.568 18.0289 125.728 18.5809 126.496 19.3489C127.264 20.1169 127.648 21.1169 127.648 22.3489C127.648 23.4369 127.352 24.3969 126.76 25.2289C126.168 26.0449 125.336 26.6769 124.264 27.1249C123.192 27.5729 121.928 27.7969 120.472 27.7969ZM129.817 27.5329V10.6129H134.233V27.5329H129.817ZM145.934 27.7969C143.998 27.7969 142.35 27.4369 140.99 26.7169C139.646 25.9969 138.622 24.9889 137.918 23.6929C137.214 22.3969 136.862 20.8849 136.862 19.1569C136.862 17.3649 137.23 15.8129 137.966 14.5009C138.718 13.1729 139.79 12.1489 141.182 11.4289C142.574 10.7089 144.254 10.3489 146.222 10.3489C147.006 10.3489 147.774 10.4209 148.526 10.5649C149.278 10.6929 149.966 10.8929 150.59 11.1649C151.23 11.4209 151.774 11.7249 152.222 12.0769L150.878 15.4849C150.126 15.0049 149.382 14.6609 148.646 14.4529C147.91 14.2289 147.11 14.1169 146.246 14.1169C144.63 14.1169 143.422 14.5489 142.622 15.4129C141.838 16.2609 141.446 17.5089 141.446 19.1569C141.446 20.7889 141.846 22.0209 142.646 22.8529C143.446 23.6849 144.63 24.1009 146.198 24.1009C146.678 24.1009 147.198 24.0529 147.758 23.9569C148.334 23.8609 148.91 23.7249 149.486 23.5489L148.67 25.2049V21.1009H145.286V18.0049H152.27V26.5009C151.678 26.7729 151.03 27.0049 150.326 27.1969C149.638 27.3889 148.918 27.5329 148.166 27.6289C147.43 27.7409 146.686 27.7969 145.934 27.7969ZM155.224 27.5329V10.6129H158.464L166.911 21.1489H166.24V10.6129H170.32V27.5329H167.104L158.656 16.9729H159.328V27.5329H155.224Z" fill="#131313"/>
</svg>
